<?xml version="1.0" encoding="iso-8859-1"?>
<!-- Generator: Adobe Illustrator 19.0.0, SVG Export Plug-In . SVG Version: 6.00 Build 0)  -->
<svg version="1.1" id="Capa_1" xmlns="http://www.w3.org/2000/svg" xmlns:xlink="http://www.w3.org/1999/xlink" x="0px" y="0px"
	 viewBox="0 0 512 512" style="enable-background:new 0 0 512 512;" xml:space="preserve">
<rect x="59.733" y="8.533" style="fill:#AABECE;" width="392.533" height="256"/>
<rect x="93.867" y="42.667" style="fill:#CFDFE8;" width="324.267" height="187.733"/>
<rect x="59.733" y="366.933" style="fill:#AABECE;" width="290.133" height="136.533"/>
<g>
	<rect x="119.467" y="68.267" style="fill:#238892;" width="17.067" height="17.067"/>
	<rect x="119.467" y="102.4" style="fill:#238892;" width="17.067" height="102.4"/>
</g>
<g>
	<path style="fill:#CFDFE8;" d="M273.067,409.6H256v-17.067h17.067V409.6z M238.933,409.6h-17.067v-17.067h17.067V409.6z
		 M204.8,409.6h-17.067v-17.067H204.8V409.6z M170.667,409.6H153.6v-17.067h17.067V409.6z M136.533,409.6h-17.067v-17.067h17.067
		V409.6z M102.4,409.6H85.333v-17.067H102.4V409.6z"/>
	<path style="fill:#CFDFE8;" d="M273.067,443.733H256v-17.067h17.067V443.733z M238.933,443.733h-17.067v-17.067h17.067V443.733z
		 M204.8,443.733h-17.067v-17.067H204.8V443.733z M170.667,443.733H153.6v-17.067h17.067V443.733z M136.533,443.733h-17.067v-17.067
		h17.067V443.733z M102.4,443.733H85.333v-17.067H102.4V443.733z"/>
</g>
<g>
	<path style="fill:#AABECE;" d="M418.133,384L418.133,384c18.85,0,34.133,15.283,34.133,34.133v51.2
		c0,18.85-15.283,34.133-34.133,34.133l0,0c-18.85,0-34.133-15.283-34.133-34.133v-51.2C384,399.283,399.283,384,418.133,384z"/>
	<path style="fill:#AABECE;" d="M418.133,512c-23.552-0.026-42.641-19.115-42.667-42.667v-51.2
		c0-23.561,19.106-42.667,42.667-42.667s42.667,19.106,42.667,42.667v51.2C460.774,492.885,441.685,511.974,418.133,512z
		 M418.133,392.533c-14.14,0-25.6,11.46-25.6,25.6v51.2c0,14.14,11.46,25.6,25.6,25.6s25.6-11.46,25.6-25.6v-51.2
		C443.733,403.994,432.273,392.533,418.133,392.533z"/>
</g>
<path style="fill:#394D5C;" d="M418.133,477.867c-4.71,0-8.533-3.823-8.533-8.533v-17.067c0-4.71,3.823-8.533,8.533-8.533
	s8.533,3.823,8.533,8.533v17.067C426.667,474.044,422.844,477.867,418.133,477.867z"/>
<g>
	<path style="fill:#238892;" d="M230.4,477.867H128c-4.71,0-8.533-3.823-8.533-8.533c0-4.71,3.823-8.533,8.533-8.533h102.4
		c4.71,0,8.533,3.823,8.533,8.533C238.933,474.044,235.11,477.867,230.4,477.867z"/>
	<rect x="153.6" y="264.533" style="fill:#238892;" width="204.8" height="51.2"/>
</g>
<g>
	<path style="fill:#394D5C;" d="M102.4,375.467c-4.71,0-8.533-3.823-8.533-8.533v-68.267c0-4.71,3.823-8.533,8.533-8.533h51.2
		c4.71,0,8.533,3.823,8.533,8.533s-3.823,8.533-8.533,8.533h-42.667v59.733C110.933,371.644,107.11,375.467,102.4,375.467z"/>
	<path style="fill:#394D5C;" d="M418.133,358.4c-4.71,0-8.533-3.823-8.533-8.533V307.2h-17.067c-4.71,0-8.533-3.823-8.533-8.533
		s3.823-8.533,8.533-8.533h25.6c4.71,0,8.533,3.823,8.533,8.533v51.2C426.667,354.577,422.844,358.4,418.133,358.4z"/>
</g>
<rect x="290.133" y="460.8" style="fill:#CFDFE8;" width="34.133" height="17.067"/>
<rect x="290.133" y="426.667" style="fill:#238892;" width="34.133" height="17.067"/>
<rect x="290.133" y="392.533" style="fill:#CFDFE8;" width="34.133" height="17.067"/>
<path d="M460.8,8.533c0-4.71-3.823-8.533-8.533-8.533H59.733C55.023,0,51.2,3.823,51.2,8.533v256c0,4.71,3.823,8.533,8.533,8.533
	h85.333v17.067H102.4c-4.71,0-8.533,3.823-8.533,8.533V358.4H59.733c-4.71,0-8.533,3.823-8.533,8.533v136.533
	c0,4.71,3.823,8.533,8.533,8.533h290.133c4.71,0,8.533-3.823,8.533-8.533V366.933c0-4.71-3.823-8.533-8.533-8.533H110.933v-51.2
	h34.133v8.533c0,4.71,3.823,8.533,8.533,8.533h204.8c4.71,0,8.533-3.823,8.533-8.533v-42.667h85.333c4.71,0,8.533-3.823,8.533-8.533
	V8.533z M341.333,375.467v119.467H68.267V375.467H341.333z M349.867,307.2H162.133v-34.133h187.733V307.2z M443.733,256H68.267
	V17.067h375.467V256z"/>
<path d="M93.867,238.933h324.267c4.71,0,8.533-3.823,8.533-8.533V42.667c0-4.71-3.823-8.533-8.533-8.533H93.867
	c-4.71,0-8.533,3.823-8.533,8.533V230.4C85.333,235.11,89.156,238.933,93.867,238.933z M102.4,51.2h307.2v170.667H102.4V51.2z"/>
<rect x="119.467" y="68.267" width="17.067" height="17.067"/>
<rect x="119.467" y="102.4" width="17.067" height="102.4"/>
<rect x="85.333" y="392.533" width="17.067" height="17.067"/>
<rect x="221.867" y="392.533" width="17.067" height="17.067"/>
<rect x="153.6" y="392.533" width="17.067" height="17.067"/>
<rect x="187.733" y="392.533" width="17.067" height="17.067"/>
<rect x="256" y="392.533" width="17.067" height="17.067"/>
<rect x="119.467" y="392.533" width="17.067" height="17.067"/>
<rect x="119.467" y="426.667" width="17.067" height="17.067"/>
<rect x="153.6" y="426.667" width="17.067" height="17.067"/>
<rect x="85.333" y="426.667" width="17.067" height="17.067"/>
<rect x="221.867" y="426.667" width="17.067" height="17.067"/>
<rect x="256" y="426.667" width="17.067" height="17.067"/>
<rect x="187.733" y="426.667" width="17.067" height="17.067"/>
<path d="M375.467,469.333c0,23.561,19.106,42.667,42.667,42.667s42.667-19.106,42.667-42.667v-51.2
	c0-23.561-19.106-42.667-42.667-42.667s-42.667,19.106-42.667,42.667V469.333z M392.533,418.133c0-14.14,11.46-25.6,25.6-25.6
	s25.6,11.46,25.6,25.6v51.2c0,14.14-11.46,25.6-25.6,25.6s-25.6-11.46-25.6-25.6V418.133z"/>
<path d="M418.133,477.867c4.71,0,8.533-3.823,8.533-8.533v-17.067c0-4.71-3.823-8.533-8.533-8.533s-8.533,3.823-8.533,8.533v17.067
	C409.6,474.044,413.423,477.867,418.133,477.867z"/>
<path d="M128,477.867h102.4c4.71,0,8.533-3.823,8.533-8.533c0-4.71-3.823-8.533-8.533-8.533H128c-4.71,0-8.533,3.823-8.533,8.533
	C119.467,474.044,123.29,477.867,128,477.867z"/>
<path d="M418.133,358.4c4.71,0,8.533-3.823,8.533-8.533v-51.2c0-4.71-3.823-8.533-8.533-8.533h-25.6
	c-4.71,0-8.533,3.823-8.533,8.533s3.823,8.533,8.533,8.533H409.6v42.667C409.6,354.577,413.423,358.4,418.133,358.4z"/>
<rect x="290.133" y="460.8" width="34.133" height="17.067"/>
<rect x="290.133" y="426.667" width="34.133" height="17.067"/>
<rect x="290.133" y="392.533" width="34.133" height="17.067"/>
<g>
</g>
<g>
</g>
<g>
</g>
<g>
</g>
<g>
</g>
<g>
</g>
<g>
</g>
<g>
</g>
<g>
</g>
<g>
</g>
<g>
</g>
<g>
</g>
<g>
</g>
<g>
</g>
<g>
</g>
</svg>
