<?xml version="1.0"?>
<svg xmlns="http://www.w3.org/2000/svg" viewBox="0 0 64 64" width="512" height="512"><g id="Filled_outline" data-name="Filled outline"><path d="M45,53A19,19,0,0,0,7,53H3v8H49V53ZM15,53a11,11,0,0,1,22,0Z" style="fill:#eed98f"/><path d="M12,3,61,52V3ZM54,35,29,10H54Z" style="fill:#426d78"/><rect x="3.672" y="4.379" width="5.657" height="4.243" transform="translate(-2.692 6.5) rotate(-45)" style="fill:#f9bb4b"/><rect x="13.672" y="4.479" width="5.657" height="24.042" transform="translate(-6.835 16.5) rotate(-45)" style="fill:#dc6c54"/><polygon points="30 30 23 27 27 23 30 30" style="fill:#f9bb4b"/><rect x="6.257" y="19.136" width="8.485" height="12.728" transform="translate(-14.956 14.893) rotate(-45)" style="fill:#907eac"/><path d="M26,33A20.024,20.024,0,0,0,6.025,52H2V62H50V52H45.975A20.024,20.024,0,0,0,26,33ZM48,60H45V58H43v2H41V56H39v4H37V58H35v2H33V56H31v4H29V58H27v2H25V56H23v4H21V58H19v2H17V56H15v4H13V58H11v2H9V56H7v4H4V54h8V52H8.051q.046-.843.169-1.665l2.537.635.486-1.94-2.619-.654a17.979,17.979,0,0,1,.692-2.1L12.553,47.9l.894-1.79-3.288-1.644a18.15,18.15,0,0,1,1.54-2.348l1.594,1.594,1.414-1.414L13,40.585a18.088,18.088,0,0,1,2.058-1.843L17.2,41.6l1.6-1.2-2.091-2.787a17.859,17.859,0,0,1,2.664-1.333l.678,2.036,1.9-.632-.678-2.033a17.908,17.908,0,0,1,3.729-.6V38h2V35.051a17.908,17.908,0,0,1,3.729.6l-.678,2.033,1.9.632.678-2.036a17.859,17.859,0,0,1,2.664,1.333L33.2,40.4l1.6,1.2,2.143-2.858A18.088,18.088,0,0,1,39,40.585l-1.708,1.708,1.414,1.414L40.3,42.113a18.15,18.15,0,0,1,1.54,2.348l-3.288,1.644.894,1.79,3.237-1.619a17.979,17.979,0,0,1,.692,2.1l-2.619.654.486,1.94,2.537-.635q.123.822.169,1.665H40v2h8Z"/><path d="M26,41A12.013,12.013,0,0,0,14,53v1H38V53A12.013,12.013,0,0,0,26,41ZM16.05,52a10,10,0,0,1,19.9,0Z"/><path d="M61,2H12a1,1,0,0,0-.707,1.707l49,49A1,1,0,0,0,61,53a.987.987,0,0,0,.383-.076A1,1,0,0,0,62,52V3A1,1,0,0,0,61,2ZM60,8H58v2h2v2H57v2h3v2H58v2h2v2H57v2h3v2H58v2h2v2H57v2h3v2H58v2h2v2H57v2h3v2H58v2h2v2H57v2h3v3.586L49.914,39.5l1.793-1.793-1.414-1.414L48.5,38.086,46.914,36.5l1.793-1.793-1.414-1.414L45.5,35.086,43.914,33.5l1.793-1.793-1.414-1.414L42.5,32.086,40.914,30.5l1.793-1.793-1.414-1.414L39.5,29.086,37.914,27.5l1.793-1.793-1.414-1.414L36.5,26.086,34.914,24.5l1.793-1.793-1.414-1.414L33.5,23.086,31.914,21.5l1.793-1.793-1.414-1.414L30.5,20.086,28.914,18.5l1.793-1.793-1.414-1.414L27.5,17.086,25.914,15.5l1.793-1.793-1.414-1.414L24.5,14.086,14.414,4H20V7h2V4h2V6h2V4h2V7h2V4h2V6h2V4h2V7h2V4h2V6h2V4h2V7h2V4h2V6h2V4h2V7h2V4h2V6h2V4h2Z"/><path d="M54,9H29a1,1,0,0,0-.707,1.707l25,25A1,1,0,0,0,54,36a.987.987,0,0,0,.383-.076A1,1,0,0,0,55,35V10A1,1,0,0,0,54,9ZM53,32.586,31.414,11H53Z"/><path d="M11.293,33.707a1,1,0,0,0,1.414,0l6-6a1,1,0,0,0,0-1.414l-9-9a1,1,0,0,0-1.414,0l-6,6a1,1,0,0,0,0,1.414ZM9,19.414,16.586,27,12,31.586,4.414,24Z"/><rect x="7.586" y="23" width="2.828" height="2" transform="translate(-14.335 13.393) rotate(-45)"/><path d="M22.293,27.707a1.87,1.87,0,0,0,.332.22l6.981,2.992A.989.989,0,0,0,30,31a1,1,0,0,0,.919-1.394l-3-7a1.8,1.8,0,0,0-.212-.313l-20-20a1,1,0,0,0-1.414,0l-4,4a1,1,0,0,0,0,1.414Zm5.8.389-3.345-1.433,1.912-1.912ZM25.586,23,23,25.586,7.414,10,10,7.414ZM7,4.414,8.586,6,6,8.586,4.414,7Z"/></g></svg>
