<?xml version="1.0" encoding="iso-8859-1"?>
<!-- Generator: Adobe Illustrator 19.0.0, SVG Export Plug-In . SVG Version: 6.00 Build 0)  -->
<svg version="1.1" id="Capa_1" xmlns="http://www.w3.org/2000/svg" xmlns:xlink="http://www.w3.org/1999/xlink" x="0px" y="0px"
	 viewBox="0 0 512 512" style="enable-background:new 0 0 512 512;" xml:space="preserve">
<g>
	<rect x="297.334" y="196.267" style="fill:#238892;" width="17.067" height="34.133"/>
	<rect x="331.468" y="204.8" style="fill:#238892;" width="17.067" height="42.667"/>
</g>
<g>
	<path style="fill:#FFD782;" d="M399.734,409.6c0,51.84-42.027,93.867-93.867,93.867s-93.867-42.027-93.867-93.867V230.4
		l93.867,25.6l93.867-25.6V409.6z"/>
	<path style="fill:#FFD782;" d="M305.868,512c-56.525-0.06-102.34-45.875-102.4-102.4V219.221l102.4,27.938l102.4-27.938V409.6
		C408.208,466.125,362.393,511.94,305.868,512z M220.534,241.579V409.6c0,47.13,38.204,85.333,85.333,85.333
		s85.333-38.204,85.333-85.333V241.579l-85.333,23.262L220.534,241.579z"/>
</g>
<g>
	<path style="fill:#5A6470;" d="M254.668,315.733c-9.429,0-17.067-7.637-17.067-17.067s7.637-17.067,17.067-17.067
		c9.429,0,17.067,7.637,17.067,17.067S264.089,315.733,254.668,315.733z"/>
	<path style="fill:#5A6470;" d="M357.068,315.733c-9.429,0-17.067-7.637-17.067-17.067s7.637-17.067,17.067-17.067
		c9.429,0,17.067,7.637,17.067,17.067S366.489,315.733,357.068,315.733z"/>
	<path style="fill:#5A6470;" d="M85.81,85.333c-34.953,38.246-32.273,97.587,5.973,132.54c33.51,30.618,84.139,32.853,120.218,5.308
		l-44.297-86.135L85.81,85.333z"/>
	<path style="fill:#5A6470;" d="M154.998,251.162c-56.636-0.188-102.391-46.242-102.212-102.878
		c0.085-25.421,9.609-49.911,26.726-68.71l4.813-5.265l89.899,56.764l48.64,94.549l-5.666,4.343
		C199.363,243.686,177.501,251.136,154.998,251.162z M87.534,96.521c-28.706,37.376-21.666,90.948,15.71,119.654
		c28.45,21.845,67.516,23.569,97.783,4.309l-39.842-77.457L87.534,96.521z"/>
</g>
<g>
	<path style="fill:#FFD782;" d="M186.401,264.533h25.6l0,0v51.2l0,0h-25.6c-14.14,0-25.6-11.46-25.6-25.6l0,0
		C160.801,275.994,172.261,264.533,186.401,264.533z"/>
	<path style="fill:#FFD782;" d="M425.334,315.733h-25.6l0,0v-51.2l0,0h25.6c14.14,0,25.6,11.46,25.6,25.6l0,0
		C450.934,304.273,439.474,315.733,425.334,315.733z"/>
</g>
<path style="fill:#DD3E46;" d="M254.668,401.067h102.4l0,0l0,0c0,28.279-22.921,51.2-51.2,51.2l0,0
	C277.588,452.267,254.668,429.346,254.668,401.067L254.668,401.067L254.668,401.067z"/>
<rect x="297.334" y="324.267" style="fill:#5A6470;" width="17.067" height="51.2"/>
<path style="fill:#FDBD40;" d="M305.868,8.533L305.868,8.533c23.561,0,42.667,19.106,42.667,42.667V128l0,0h-85.333l0,0V51.2
	C263.201,27.639,282.299,8.533,305.868,8.533z"/>
<rect x="297.334" y="68.267" style="fill:#FFFFFF;" width="17.067" height="51.2"/>
<g>
	<path style="fill:#FDBD40;" d="M229.068,51.2c-2.261,0-4.437-0.896-6.033-2.5l-25.6-25.6c-3.277-3.388-3.183-8.789,0.213-12.066
		c3.311-3.191,8.55-3.191,11.853,0l25.6,25.6c3.328,3.337,3.328,8.738,0,12.066C233.497,50.304,231.329,51.2,229.068,51.2z"/>
	<path style="fill:#FDBD40;" d="M382.668,51.2c-4.71,0-8.533-3.823-8.533-8.533c0-2.261,0.896-4.429,2.5-6.033l25.6-25.6
		c3.277-3.388,8.678-3.482,12.066-0.213s3.482,8.678,0.213,12.066c-0.068,0.068-0.137,0.137-0.213,0.213l-25.6,25.6
		C387.097,50.304,384.929,51.2,382.668,51.2z"/>
	<path style="fill:#FDBD40;" d="M229.068,93.867c-2.261,0-4.437-0.896-6.033-2.5l-25.6-25.6c-3.277-3.388-3.183-8.789,0.213-12.066
		c3.311-3.191,8.55-3.191,11.853,0l25.6,25.6c3.328,3.337,3.328,8.738,0,12.066C233.497,92.971,231.329,93.867,229.068,93.867z"/>
	<path style="fill:#FDBD40;" d="M382.668,93.867c-4.71,0-8.533-3.823-8.533-8.533c0-2.261,0.896-4.429,2.5-6.033l25.6-25.6
		c3.388-3.277,8.789-3.183,12.066,0.213c3.191,3.311,3.191,8.55,0,11.853l-25.6,25.6C387.097,92.971,384.929,93.867,382.668,93.867z
		"/>
</g>
<rect x="280.268" y="128" style="fill:#F49E21;" width="51.2" height="25.6"/>
<rect x="288.801" y="162.133" style="fill:#FDBD40;" width="34.133" height="17.067"/>
<circle cx="254.668" cy="298.667" r="17.067"/>
<circle cx="357.068" cy="298.667" r="17.067"/>
<path d="M79.581,217.728c31.479,34.782,82.679,43.503,123.887,21.086V256h-17.067c-18.85,0-34.133,15.283-34.133,34.133
	c0,18.85,15.283,34.133,34.133,34.133h17.067V409.6c0,56.55,45.85,102.4,102.4,102.4s102.4-45.85,102.4-102.4v-85.333h17.067
	c18.85,0,34.133-15.283,34.133-34.133c0-18.85-15.283-34.133-34.133-34.133h-17.067v-36.779l-59.733,16.299V204.8h-17.067v35.379
	l-25.6,6.98l-83.686-22.827l-47.957-93.261L84.325,74.308l-4.813,5.265C43.51,118.596,43.545,178.739,79.581,217.728z
	 M203.468,307.2h-17.067c-9.429,0-17.067-7.637-17.067-17.067c0-9.429,7.637-17.067,17.067-17.067h17.067V307.2z M408.268,273.067
	h17.067c9.429,0,17.067,7.637,17.067,17.067c0,9.429-7.637,17.067-17.067,17.067h-17.067V273.067z M220.534,241.579l85.333,23.262
	l85.333-23.262V409.6c0,47.13-38.204,85.333-85.333,85.333s-85.333-38.204-85.333-85.333L220.534,241.579L220.534,241.579z
	 M87.534,96.512l73.643,46.507l39.842,77.457c-39.765,25.301-92.501,13.577-117.803-26.18
	c-19.251-30.259-17.536-69.333,4.309-97.783L87.534,96.512z"/>
<path d="M246.134,401.067c0,32.99,26.743,59.733,59.733,59.733s59.733-26.743,59.733-59.733v-8.533H246.134L246.134,401.067
	L246.134,401.067z M347.681,409.6c-4.693,23.091-27.213,38.016-50.304,33.323c-16.794-3.413-29.909-16.529-33.323-33.323H347.681z"
	/>
<rect x="297.334" y="324.267" width="17.067" height="51.2"/>
<path d="M235.101,36.634l-25.6-25.6c-3.388-3.277-8.789-3.183-12.066,0.213c-3.191,3.311-3.191,8.55,0,11.853l25.6,25.6
	c3.388,3.277,8.789,3.183,12.066-0.213C238.292,45.184,238.292,39.945,235.101,36.634z"/>
<path d="M414.301,11.034c-3.328-3.328-8.738-3.328-12.066,0l-25.6,25.6c-3.388,3.277-3.482,8.678-0.213,12.066
	c3.268,3.388,8.678,3.482,12.066,0.213c0.068-0.068,0.137-0.137,0.213-0.213l25.6-25.6
	C417.629,19.772,417.629,14.362,414.301,11.034z"/>
<path d="M209.501,53.7c-3.388-3.277-8.789-3.183-12.066,0.213c-3.191,3.311-3.191,8.55,0,11.853l25.6,25.6
	c3.388,3.277,8.789,3.183,12.066-0.213c3.191-3.311,3.191-8.55,0-11.853L209.501,53.7z"/>
<path d="M402.235,53.7l-25.6,25.6c-3.388,3.277-3.482,8.678-0.213,12.066c3.277,3.388,8.678,3.482,12.066,0.213
	c0.068-0.068,0.137-0.137,0.213-0.213l25.6-25.6c3.277-3.388,3.183-8.789-0.213-12.066C410.785,50.509,405.537,50.509,402.235,53.7z
	"/>
<path d="M322.934,162.133h17.067v-25.6h17.067V51.2c0-28.279-22.921-51.2-51.2-51.2c-28.279,0-51.2,22.921-51.2,51.2v85.333h17.067
	v25.6h17.067V179.2h34.133V162.133z M271.734,119.467V51.2c0-18.85,15.283-34.133,34.133-34.133
	c18.85,0,34.133,15.283,34.133,34.133v68.267h-25.6v-51.2h-17.067v51.2H271.734z M288.801,136.533h34.133v8.533h-34.133V136.533z"/>
<rect x="297.334" y="196.267" width="17.067" height="34.133"/>
<g>
</g>
<g>
</g>
<g>
</g>
<g>
</g>
<g>
</g>
<g>
</g>
<g>
</g>
<g>
</g>
<g>
</g>
<g>
</g>
<g>
</g>
<g>
</g>
<g>
</g>
<g>
</g>
<g>
</g>
</svg>
