<svg height="512" viewBox="0 0 64 64" width="512" xmlns="http://www.w3.org/2000/svg"><g id="Filled_outline" data-name="Filled outline"><rect fill="#f4f4e6" height="48" rx="2" width="58" x="3" y="3"/><g fill="#55b56a"><circle cx="32" cy="35" r="3"/><path d="m53 17c-4.952-5.794-12.78-9-21-9s-16.048 3.206-21 9l3 3a23.326 23.326 0 0 1 18-8 23.326 23.326 0 0 1 18 8z"/><path d="m17 23a19.133 19.133 0 0 1 15-7 19.133 19.133 0 0 1 15 7l-3.012 3.012a14.958 14.958 0 0 0 -23.976 0z"/><path d="m23 29a10.6 10.6 0 0 1 18 0l-3 3a6.873 6.873 0 0 0 -6-4 6.873 6.873 0 0 0 -6 4z"/></g><path d="m27 51h10l4 6h-18z" fill="#7d8d9c"/><path d="m16 57h32v4h-32z" fill="#aabece"/><path d="m3 43h58a0 0 0 0 1 0 0v6a2 2 0 0 1 -2 2h-54a2 2 0 0 1 -2-2v-6a0 0 0 0 1 0 0z" fill="#aabece"/><path d="m31 46h2v2h-2z" fill="#394d5c"/><path d="m32 31a4 4 0 1 0 4 4 4 4 0 0 0 -4-4zm0 6a2 2 0 1 1 2-2 2 2 0 0 1 -2 2z"/><path d="m13.293 20.707a.969.969 0 0 0 .753.292 1 1 0 0 0 .723-.359 22.463 22.463 0 0 1 17.231-7.64 22.463 22.463 0 0 1 17.231 7.64 1 1 0 0 0 .723.359h.046a1 1 0 0 0 .707-.293l3-3a1 1 0 0 0 .053-1.356c-5.079-5.942-13.01-9.35-21.76-9.35s-16.681 3.408-21.76 9.351a1 1 0 0 0 .053 1.356zm18.707-11.707c7.7 0 14.957 2.961 19.625 7.961l-1.578 1.577a24.688 24.688 0 0 0 -18.047-7.538 24.688 24.688 0 0 0 -18.047 7.538l-1.578-1.577c4.668-5 11.925-7.961 19.625-7.961z"/><path d="m32 15a20 20 0 0 0 -15.781 7.376 1 1 0 0 0 .074 1.331l3.012 3.012a1 1 0 0 0 1.507-.107 13.958 13.958 0 0 1 22.376 0 1 1 0 0 0 .729.4h.071a1 1 0 0 0 .707-.293l3.012-3.012a1 1 0 0 0 .074-1.331 20 20 0 0 0 -15.781-7.376zm12.068 9.518a15.956 15.956 0 0 0 -24.136 0l-1.575-1.576a18.633 18.633 0 0 1 27.286 0z"/><path d="m32 23a11.791 11.791 0 0 0 -9.83 5.441 1 1 0 0 0 .123 1.266l3 3a1 1 0 0 0 1.6-.247 5.878 5.878 0 0 1 5.107-3.46 5.878 5.878 0 0 1 5.112 3.46 1 1 0 0 0 .735.528.986.986 0 0 0 .153.012 1 1 0 0 0 .707-.293l3-3a1 1 0 0 0 .123-1.266 11.791 11.791 0 0 0 -9.83-5.441zm6.192 7.394a7.345 7.345 0 0 0 -12.384 0l-1.5-1.5a9.537 9.537 0 0 1 15.38 0z"/><path d="m59 2h-54a3 3 0 0 0 -3 3v44a3 3 0 0 0 3 3h20.132l-2.667 4h-6.465a1 1 0 0 0 -1 1v4a1 1 0 0 0 1 1h32a1 1 0 0 0 1-1v-4a1 1 0 0 0 -1-1h-6.465l-2.667-4h20.132a3 3 0 0 0 3-3v-44a3 3 0 0 0 -3-3zm-54 2h54a1 1 0 0 1 1 1v37h-56v-37a1 1 0 0 1 1-1zm42 56h-30v-2h30zm-7.869-4h-14.262l2.666-4h8.93zm20.869-7a1 1 0 0 1 -1 1h-54a1 1 0 0 1 -1-1v-5h56z"/><path d="m31 46h2v2h-2z"/></g></svg>